<svg width="53" height="45" viewBox="0 0 53 45" fill="none" xmlns="http://www.w3.org/2000/svg">
<path d="M9.94276 38.6112C10.0068 38.5757 10.0878 38.5588 10.1788 38.5588H10.3036V38.2817H8.92774V38.5588H9.05251C9.13007 38.5588 9.19414 38.5723 9.23967 38.5994C9.26496 38.6146 9.27676 38.6517 9.27676 38.7109C9.27676 38.77 9.26664 38.8308 9.24641 38.8917C9.22449 38.9609 9.1992 39.0268 9.17222 39.0877L6.9601 43.8964L5.54886 40.8077L6.24858 39.2752C6.32276 39.1198 6.39189 38.9897 6.45259 38.8917C6.50823 38.8004 6.56387 38.7295 6.61783 38.6805C6.66841 38.6348 6.71899 38.6027 6.77126 38.5841C6.8269 38.5656 6.88928 38.5554 6.95841 38.5554H7.08318V38.2783H5.70735V38.5554H5.83212C6.03613 38.5554 6.04625 38.623 6.04793 38.645C6.06311 38.7531 6.02939 38.9035 5.95014 39.086L5.34822 40.3904L4.73617 39.0437C4.71425 38.9947 4.69402 38.9373 4.67379 38.8748C4.65693 38.819 4.6485 38.7632 4.6485 38.7092C4.6485 38.6213 4.67716 38.6044 4.68728 38.5977C4.73617 38.5689 4.79856 38.5554 4.87274 38.5554H4.99751V38.2783H3.22039V38.5554H3.34516C3.44296 38.5554 3.52557 38.5723 3.58796 38.6044C3.65371 38.6382 3.71441 38.6872 3.76668 38.7463C3.82232 38.8106 3.86953 38.8832 3.91 38.9626C3.95384 39.0505 3.99599 39.1417 4.03814 39.2363L4.96211 41.2453L3.7397 43.8964L1.51746 39.0471C1.44496 38.8798 1.41799 38.7447 1.43653 38.645C1.4399 38.623 1.45339 38.5588 1.65404 38.5588H1.7788V38.2817H0V38.5588H0.124769C0.195584 38.5588 0.259655 38.5673 0.316981 38.5841C0.369249 38.5994 0.419832 38.6298 0.468728 38.672C0.520996 38.7176 0.573264 38.7835 0.627218 38.8697C0.684545 38.9643 0.748615 39.0893 0.817744 39.238L3.42778 44.9304H3.64023L5.15263 41.661L6.64818 44.9304H6.87074L9.48077 39.2617C9.52124 39.1688 9.56508 39.0758 9.61229 38.9863C9.65613 38.9018 9.70671 38.8258 9.76235 38.7582C9.81124 38.699 9.87363 38.6484 9.94276 38.6112Z" fill="#B5689E"/>
<path d="M13.4613 40.3942C13.1072 40.1475 12.6587 40.0225 12.1293 40.0225C11.5999 40.0225 11.148 40.1475 10.7889 40.3942C10.4331 40.6392 10.1617 40.9484 9.98293 41.3167C9.80589 41.6817 9.71484 42.0821 9.71484 42.5045C9.71484 42.9286 9.80252 43.3274 9.97787 43.6923C10.1532 44.0607 10.4213 44.3699 10.7754 44.6149C11.1311 44.8616 11.5813 44.9866 12.1124 44.9866C12.6419 44.9866 13.092 44.8616 13.4495 44.6149C13.8036 44.3699 14.0716 44.0607 14.2504 43.6923C14.4274 43.3274 14.5185 42.9269 14.5185 42.5028C14.5185 42.0804 14.4308 41.68 14.2554 41.315C14.0784 40.9484 13.8103 40.6392 13.4613 40.3942ZM12.6587 44.5895C12.5997 44.6064 12.5424 44.6166 12.4867 44.6216C12.4294 44.6267 12.3687 44.6301 12.3063 44.6301C12.0012 44.6301 11.723 44.5388 11.4818 44.3581C11.2323 44.1722 11.0215 43.9323 10.858 43.6484C10.6928 43.3595 10.5747 43.0385 10.5056 42.6921C10.4365 42.3474 10.4281 42.0145 10.4803 41.702C10.5309 41.3944 10.6472 41.1173 10.8277 40.8791C11.0047 40.6442 11.2492 40.4922 11.5763 40.4145L11.5796 40.4128C11.6387 40.3976 11.696 40.3857 11.7516 40.3807C11.8106 40.3756 11.8696 40.3722 11.9236 40.3722C12.2321 40.3722 12.5036 40.4618 12.7481 40.6442C12.9976 40.8301 13.2084 41.07 13.3719 41.3539C13.5372 41.6428 13.6552 41.9655 13.7243 42.3119C13.7934 42.6566 13.8019 42.9928 13.7496 43.3071C13.699 43.6163 13.5844 43.8934 13.4057 44.13C13.232 44.3597 12.9892 44.5101 12.6587 44.5895Z" fill="#B5689E"/>
<path d="M23.5225 44.5524C23.4804 44.5727 23.4433 44.5845 23.4079 44.5845C23.3741 44.5845 23.3286 44.5761 23.278 44.5119C23.2342 44.4544 23.2106 44.353 23.2106 44.2162V41.6969C23.2106 41.408 23.1668 41.1529 23.0808 40.9417C22.9931 40.7288 22.8717 40.5497 22.7183 40.4077C22.5665 40.2675 22.3895 40.1644 22.1956 40.0985C21.8027 39.9684 21.361 39.9735 20.9226 40.1019C20.6984 40.1678 20.4842 40.2658 20.2853 40.3942C20.088 40.5226 19.911 40.6781 19.7575 40.8572C19.6918 40.9332 19.6328 41.0143 19.5822 41.1005C19.5552 41.0042 19.5215 40.9163 19.481 40.8335C19.3866 40.646 19.2652 40.4872 19.1185 40.3638C18.9718 40.2405 18.8032 40.1475 18.6144 40.0884C18.2232 39.9667 17.7949 39.9769 17.3751 40.1019C17.1542 40.1678 16.9418 40.2624 16.7462 40.3841C16.5472 40.5074 16.3702 40.6595 16.2168 40.8386C16.178 40.8825 16.1426 40.9282 16.1089 40.9755V40.134L15.9656 40.0867L14.9202 40.2827V40.5378H15.045C15.1731 40.5378 15.2405 40.548 15.2743 40.5564C15.3198 40.5683 15.335 40.5818 15.3383 40.5868C15.3434 40.5936 15.3552 40.6122 15.3603 40.6595C15.3653 40.7169 15.3687 40.7879 15.3687 40.8707V44.2365C15.3636 44.3818 15.3316 44.4899 15.2759 44.5609C15.2271 44.6217 15.1107 44.6538 14.9387 44.6538H14.814V44.9309H16.6636V44.6538H16.5388C16.3601 44.6538 16.237 44.62 16.1915 44.5575C16.1358 44.4814 16.1072 44.3649 16.1072 44.2145V41.7679C16.1679 41.5635 16.2589 41.3793 16.377 41.2188C16.5 41.0532 16.6434 40.9096 16.8035 40.7913C16.962 40.6747 17.1323 40.5835 17.311 40.5226C17.6398 40.4094 17.9652 40.3993 18.2519 40.5041C18.38 40.5514 18.493 40.6257 18.5908 40.7254C18.6886 40.8268 18.7678 40.9569 18.8268 41.1123C18.8875 41.2711 18.9179 41.4671 18.9179 41.6952V44.2043C18.9179 44.3615 18.8892 44.4781 18.8319 44.5541C18.783 44.6183 18.665 44.6521 18.4879 44.6521H18.3631V44.9292H20.2128V44.6521H20.088C19.9126 44.6521 19.7929 44.6183 19.744 44.5541C19.6867 44.4781 19.658 44.3666 19.658 44.2212V41.7645C19.7187 41.5601 19.8098 41.3759 19.9278 41.2154C20.0509 41.0498 20.1942 40.9062 20.3527 40.7879C20.5112 40.6713 20.6815 40.5801 20.8602 40.5193C21.189 40.4061 21.5144 40.3959 21.801 40.5007C21.9292 40.548 22.0421 40.6223 22.1399 40.722C22.2377 40.8234 22.317 40.9535 22.376 41.1089C22.4367 41.2678 22.467 41.4638 22.467 41.6919V44.2111C22.467 44.473 22.5345 44.669 22.666 44.7974C22.7975 44.9241 22.956 44.99 23.1381 44.99C23.3252 44.99 23.5073 44.9241 23.6793 44.794L23.7788 44.7197L23.6153 44.5017L23.5225 44.5524Z" fill="#B5689E"/>
<path d="M28.6073 43.3221L28.5516 43.4184C28.3308 43.7918 28.0644 44.0672 27.7575 44.2379C27.2045 44.5454 26.6042 44.5741 26.0495 44.3393C25.8033 44.2362 25.5825 44.0858 25.3919 43.8949C25.2014 43.704 25.0463 43.4691 24.9316 43.1954C24.817 42.9233 24.758 42.6091 24.758 42.2627V42.0751C24.758 42.0566 24.758 42.0397 24.7597 42.0211H28.1571C28.3881 42.0211 28.4572 41.9248 28.4758 41.842C28.4926 41.7693 28.4859 41.6747 28.4572 41.5446C28.3999 41.2895 28.3004 41.0647 28.1638 40.8755C28.0273 40.688 27.8654 40.5291 27.6816 40.4024C27.4978 40.2757 27.2938 40.1794 27.073 40.1169C26.5806 39.9766 26.0461 39.9935 25.5386 40.1726C25.2571 40.274 24.9991 40.4278 24.7715 40.6322C24.5455 40.8366 24.3601 41.0935 24.2235 41.3942C24.0852 41.6967 24.0161 42.0549 24.0161 42.4587C24.0161 42.8743 24.0852 43.2444 24.2235 43.557C24.3601 43.8695 24.5455 44.1348 24.7715 44.346C24.9974 44.5572 25.2604 44.7177 25.5521 44.8242C25.8421 44.9306 26.1439 44.9847 26.4491 44.9847C26.9094 44.9847 27.3613 44.8681 27.7946 44.6383C28.2313 44.4068 28.5854 44.0486 28.8467 43.5755L28.9125 43.4556L28.6073 43.3221ZM27.9312 41.6477C27.9295 41.6578 27.9278 41.6595 27.9211 41.6629C27.9093 41.6696 27.8705 41.6832 27.7761 41.6899C27.6934 41.695 27.572 41.6984 27.4135 41.6984H24.8086C24.8507 41.5074 24.9165 41.3402 25.0058 41.1982C25.1171 41.0208 25.2503 40.8721 25.4037 40.7572C25.5572 40.6423 25.7292 40.5562 25.9129 40.5038C26.2889 40.3973 26.6801 40.399 27.0392 40.4987C27.2146 40.5477 27.3714 40.6221 27.5063 40.7184C27.6378 40.813 27.7457 40.9262 27.8266 41.058C27.9042 41.1864 27.943 41.3249 27.943 41.4821C27.943 41.5514 27.9396 41.6071 27.9312 41.6477Z" fill="#B5689E"/>
<path d="M34.0415 44.5524C33.9993 44.5726 33.9622 44.5845 33.9268 44.5845C33.8998 44.5845 33.856 44.5777 33.8054 44.5118C33.7616 44.4544 33.738 44.353 33.738 44.2161L33.7296 41.6986C33.7296 41.408 33.6857 41.1545 33.5997 40.9433C33.5121 40.7304 33.3923 40.5513 33.2423 40.4111C33.0922 40.2708 32.9169 40.1661 32.723 40.1019C32.3301 39.9718 31.8867 39.9768 31.455 40.1053C31.2342 40.1711 31.0217 40.2658 30.8261 40.3874C30.6272 40.5108 30.4501 40.6628 30.2967 40.8419C30.2579 40.8859 30.2225 40.9315 30.1888 40.9788V40.1306L30.032 40.0917L29.0001 40.286V40.5412H29.1249C29.2446 40.5412 29.3104 40.5513 29.3441 40.5598C29.3896 40.5716 29.4048 40.5851 29.4082 40.5902C29.4132 40.5969 29.425 40.6155 29.4301 40.6628C29.4351 40.7186 29.4385 40.7896 29.4385 40.874V44.2094C29.4385 44.3665 29.4098 44.4848 29.3559 44.5625C29.3104 44.625 29.1873 44.6588 29.0086 44.6588H28.8838V44.9359H30.7334V44.6588H30.6086C30.4333 44.6588 30.3136 44.625 30.2647 44.5608C30.2074 44.4848 30.1787 44.3699 30.1787 44.2195L30.1871 41.7729C30.2478 41.5685 30.3389 41.3843 30.4569 41.2238C30.58 41.0582 30.7233 40.9146 30.8784 40.7963C31.0335 40.6797 31.2021 40.5885 31.3809 40.5277C31.5579 40.4668 31.7332 40.4364 31.9035 40.4364C32.202 40.4364 32.4515 40.5344 32.669 40.7355C32.8798 40.9315 32.9877 41.2559 32.9877 41.702V44.2212C32.9877 44.4831 33.0551 44.6791 33.1866 44.8075C33.3182 44.9342 33.4766 45.0001 33.6587 45.0001C33.8459 45.0001 34.028 44.9342 34.2 44.8041L34.2978 44.7298L34.1342 44.5118L34.0415 44.5524Z" fill="#B5689E"/>
<path d="M36.5926 44.5658C36.4645 44.6148 36.3464 44.6385 36.2436 44.6385C36.0868 44.6385 35.9704 44.5709 35.8727 44.4256C35.7681 44.2684 35.7142 43.9694 35.7142 43.5351V40.4059H36.5184V40.0849H35.7142L35.7226 39.1624H35.4494L35.4292 39.262C35.3854 39.4783 35.2943 39.6523 35.151 39.7943C35.006 39.9362 34.829 40.0359 34.625 40.09L34.5322 40.1136V40.4059H34.9706V43.7598C34.9706 44.189 35.0751 44.505 35.2825 44.6976C35.4865 44.8902 35.7395 44.9865 36.0345 44.9865C36.2604 44.9865 36.4847 44.9375 36.7022 44.8412L36.8118 44.7922L36.7039 44.5219L36.5926 44.5658Z" fill="#B5689E"/>
<path d="M41.4232 43.4168C41.2023 43.7902 40.936 44.0656 40.6291 44.2363C40.0761 44.5438 39.4758 44.5725 38.9211 44.3376C38.6749 44.2346 38.4541 44.0842 38.2635 43.8933C38.073 43.7023 37.9179 43.4675 37.8032 43.1938C37.6886 42.9217 37.6296 42.6075 37.6296 42.2611V42.0735C37.6296 42.0549 37.6296 42.038 37.6313 42.0195H41.0287C41.2597 42.0195 41.3288 41.9231 41.3474 41.8404C41.3642 41.7677 41.3575 41.6731 41.3288 41.5447C41.2715 41.2895 41.172 41.0648 41.0354 40.8756C40.8989 40.688 40.737 40.5292 40.5532 40.4025C40.3694 40.2758 40.1654 40.1794 39.9445 40.1169C39.4522 39.9767 38.9177 39.9919 38.4102 40.1727C38.1286 40.2741 37.8707 40.4278 37.6431 40.6323C37.4171 40.8367 37.2317 41.0935 37.0951 41.3943C36.9568 41.6967 36.8877 42.0549 36.8877 42.4588C36.8877 42.8744 36.9568 43.2444 37.0951 43.557C37.2317 43.8696 37.4171 44.1349 37.6431 44.3461C37.869 44.5573 38.132 44.7178 38.4237 44.8243C38.7137 44.9307 39.0155 44.9848 39.3207 44.9848C39.781 44.9848 40.2329 44.8682 40.6662 44.6384C41.1029 44.4069 41.4569 44.0487 41.7183 43.5756L41.784 43.4556L41.4789 43.3188L41.4232 43.4168ZM40.8028 41.6477C40.8011 41.6579 40.7994 41.6596 40.7926 41.6629C40.7808 41.6697 40.7421 41.6832 40.6476 41.69C40.565 41.695 40.4436 41.6984 40.2851 41.6984H37.6801C37.7223 41.5075 37.7881 41.3402 37.8774 41.1983C37.9887 41.0209 38.1219 40.8722 38.2753 40.7573C38.4288 40.6424 38.6007 40.5562 38.7845 40.5039C39.1605 40.3974 39.5517 40.3991 39.9108 40.4988C40.0862 40.5478 40.243 40.6221 40.3779 40.7184C40.5094 40.8131 40.6173 40.9263 40.6982 41.0581C40.7758 41.1865 40.8146 41.325 40.8146 41.4822C40.8146 41.5514 40.8112 41.6072 40.8028 41.6477Z" fill="#B5689E"/>
<path d="M46.8372 43.4827L46.5438 43.3358L46.4848 43.4371C46.2707 43.8038 46.0059 44.0741 45.6974 44.2414C45.1427 44.5421 44.5374 44.5743 43.9692 44.3428C43.7196 44.2414 43.4971 44.0961 43.3082 43.9085C43.1177 43.721 42.9609 43.4878 42.8429 43.2175C42.7248 42.9471 42.6658 42.6396 42.6658 42.3C42.6658 41.984 42.7181 41.7053 42.821 41.4721C42.9238 41.2372 43.0621 41.0362 43.2307 40.8756C43.3993 40.7151 43.5949 40.5918 43.809 40.5124C44.1934 40.3688 44.6166 40.3502 45.0246 40.4668C45.1798 40.5107 45.3298 40.5766 45.4748 40.6594C45.4782 40.8604 45.5237 41.0345 45.6097 41.1764C45.7142 41.3521 45.8407 41.4484 45.9958 41.4653C46.1509 41.4755 46.2707 41.3961 46.3263 41.2507C46.3802 41.1071 46.3297 40.9517 46.1762 40.7912C45.9385 40.5276 45.6586 40.3299 45.3467 40.2082C44.7481 39.9717 44.0973 39.9649 43.492 40.1846C43.1969 40.291 42.9322 40.4499 42.7046 40.6577C42.4753 40.8655 42.2882 41.1257 42.1465 41.4332C42.0049 41.7407 41.9341 42.0989 41.9341 42.4977C41.9341 42.9083 42.0032 43.2715 42.1415 43.5791C42.278 43.8866 42.4635 44.1468 42.6894 44.3546C42.9154 44.5624 43.1801 44.7196 43.4751 44.8243C43.7668 44.9274 44.0737 44.9798 44.3839 44.9798C44.8493 44.9798 45.3028 44.8649 45.7294 44.6385C46.1611 44.4104 46.5118 44.0606 46.7731 43.5993L46.8372 43.4827Z" fill="#B5689E"/>
<path d="M51.8615 44.5068L51.7688 44.5541C51.7266 44.5743 51.6895 44.5862 51.6541 44.5862C51.6204 44.5862 51.5749 44.5777 51.5243 44.5135C51.4805 44.4561 51.4569 44.3547 51.4569 44.2178V41.6986C51.4569 41.408 51.413 41.1545 51.327 40.9433C51.2394 40.7304 51.118 40.5513 50.9645 40.4094C50.8128 40.2692 50.6358 40.1661 50.4419 40.1002C50.049 39.9701 49.6056 39.9752 49.1739 40.1036C48.9531 40.1695 48.7406 40.2658 48.5433 40.3908C48.3461 40.5158 48.169 40.6696 48.0156 40.8436C47.9785 40.8876 47.9414 40.9315 47.9094 40.9788L47.9178 38.3143L47.761 38.2754L46.7291 38.4697V38.7333H46.8539C46.9517 38.7333 47.0276 38.7384 47.0798 38.7485C47.1068 38.7536 47.127 38.762 47.1338 38.7721C47.1456 38.789 47.1557 38.8178 47.1591 38.8532C47.1641 38.9107 47.1675 38.9817 47.1675 39.0644V44.206C47.1675 44.3631 47.1388 44.4814 47.0832 44.5591C47.0377 44.6217 46.9146 44.6554 46.7376 44.6554H46.6128V44.9325H48.4624V44.6554H48.3376C48.1623 44.6554 48.0426 44.6217 47.9937 44.5574C47.9364 44.4814 47.9077 44.3665 47.9077 44.2161V41.7696C47.9684 41.5651 48.0594 41.3809 48.1775 41.2204C48.3005 41.0548 48.4439 40.9112 48.6024 40.7929C48.7608 40.6764 48.9311 40.5851 49.1099 40.5243C49.4386 40.4111 49.7641 40.4009 50.0507 40.5057C50.1788 40.553 50.2918 40.6274 50.3896 40.727C50.4874 40.8284 50.5666 40.9585 50.6256 41.114C50.6863 41.2728 50.7167 41.4688 50.7167 41.6969V44.2161C50.7167 44.478 50.7841 44.674 50.9156 44.8024C51.0472 44.9292 51.2056 44.9951 51.3877 44.9951C51.5749 44.9951 51.757 44.9292 51.929 44.7991L52.0268 44.7247L51.8615 44.5068Z" fill="#B5689E"/>
<path d="M39.3007 0C37.4663 0 35.9775 1.49026 35.9775 3.33027V9.34705V21.5563V21.727C35.932 23.5619 34.3943 25.0336 32.5328 24.966C30.7726 24.9018 29.3344 23.3321 29.3344 21.5665V9.34705V3.33027C29.336 1.49026 27.8472 0 26.0128 0C24.1784 0 22.6896 1.49026 22.6896 3.33027V9.34705V21.5665C22.6896 23.3321 21.253 24.9018 19.4911 24.966C17.6313 25.0336 16.092 23.5619 16.0464 21.727V21.5563V9.34536V3.33027C16.0481 1.49026 14.561 0 12.7249 0C10.8904 0 9.40332 1.49026 9.40332 3.33027V21.6408C9.40332 22.8084 9.60228 23.9286 9.96984 24.9694C11.3356 28.8471 15.0281 31.6266 19.3697 31.6266C21.9224 31.6266 24.2525 30.6635 26.0128 29.082C27.7747 30.6635 30.1049 31.6266 32.6576 31.6266C36.9992 31.6266 40.69 28.8471 42.0575 24.9694C42.425 23.9286 42.624 22.8084 42.624 21.6408V3.33027C42.624 1.49026 41.1352 0 39.3007 0Z" fill="#B5689E"/>
</svg>
