<svg width="77" height="35" viewBox="0 0 77 35" fill="none" xmlns="http://www.w3.org/2000/svg">
<path d="M0 9.11917V27.997H7.00049V13.9961H14.001V34.9951H21.0015V7.00049H2.12113C0.950676 7.00049 0 7.94871 0 9.11917ZM70 24.5005V27.9995H62.9995V20.999H66.7035V13.9985H49.001V6.99803H56.0015V10.1662H63.002V2.12114C63.002 0.950691 62.0538 0 60.8808 0H44.1216C42.9512 0 42.0005 0.948222 42.0005 2.12114V27.997H35V2.12114C35 0.950691 34.0493 0 32.8788 0H20.999V6.99803H27.9995V34.9975H48.9985V20.9965H55.999V32.8764C55.999 34.0468 56.9472 34.9975 58.1201 34.9975H74.8793C76.0498 34.9975 77.0005 34.0493 77.0005 32.8764V24.498H70V24.5005Z" fill="#F27067"/>
</svg>
