<svg width="118" height="118" viewBox="0 0 118 118" fill="none" xmlns="http://www.w3.org/2000/svg">
<path d="M0.505859 13.8981V42.6744H11.1745V21.3372H21.843V53.3491H32.5116V10.6686H3.7354C1.94805 10.6624 0.505859 12.1108 0.505859 13.8981ZM107.204 37.337V42.6682H96.5355V31.9996H102.181V21.331H75.1983V10.6624H85.8669V15.4883H96.5355V3.22955C96.5355 1.44221 95.0872 0 93.306 0H67.7593C65.972 0 64.5297 1.44837 64.5297 3.22955V42.6744H53.855V3.22955C53.855 1.44221 52.4066 0 50.6193 0H32.5116V10.6686H43.1802V53.3491H75.1922V32.012H85.8608V50.1196C85.8608 51.9069 87.3091 53.3491 89.0903 53.3491H114.637C116.424 53.3491 117.873 51.9008 117.873 50.1196V37.3493H107.204V37.337Z" fill="white"/>
<path d="M5.22722 79.691L5.38747 82.4583V92.2271H0.5V69.4292H5.06081L12.0623 81.9653L11.902 79.198V69.4292H16.7895V92.2271H12.2287L5.22722 79.691Z" fill="white"/>
<path d="M28.1851 92.5538C22.3239 92.5538 20.0435 90.2734 20.0435 86.6926V82.1317C20.0435 77.8976 22.3239 75.6172 28.1851 75.6172C34.373 75.6172 36.3268 77.2443 36.3268 81.8051V85.5524H24.9309V86.3659C24.9309 87.5061 25.4178 87.6663 28.1851 87.6663C31.0818 87.6663 31.4393 87.6663 31.4393 87.013H36.3268V87.1733C36.3268 90.7603 34.373 92.5538 28.1851 92.5538ZM24.9309 82.6186H31.4455V81.8051C31.4455 80.8313 30.7922 80.5046 28.1913 80.5046C25.5842 80.5046 24.9371 80.8313 24.9371 82.1317V82.6186H24.9309Z" fill="white"/>
<path d="M44.4685 92.2269H39.5811V90.5998C39.5811 88.2208 40.6226 85.7493 43.3591 83.9558C40.6226 82.2609 39.5811 79.9497 39.5811 77.5707V75.9436H44.4685V77.5707C44.4685 79.4628 44.6966 80.566 47.7227 82.0021C50.7489 80.566 50.9769 79.4628 50.9769 77.5707V75.9436H55.8644V77.5707C55.8644 79.9497 54.8228 82.2609 52.0863 83.9558C54.8228 85.7493 55.8644 88.2208 55.8644 90.5998V92.2269H50.9769V90.5998C50.9769 88.7139 50.7489 87.3764 47.7227 85.8788C44.6966 87.3764 44.4685 88.7139 44.4685 90.5998V92.2269Z" fill="white"/>
<path d="M69.2204 92.227H64.0125C60.7583 92.227 59.125 90.5999 59.125 87.3396V76.2334L60.0988 72.6833H64.0063V75.9375H69.2142V80.825H64.0063V85.7125C64.0063 87.0129 64.6596 87.3396 65.6334 87.3396H69.2142V92.227H69.2204Z" fill="white"/>
<path d="M72.1479 69.4292H77.0354V74.3167H72.1479V69.4292ZM72.1479 75.9438H77.0354V92.2271H72.1479V75.9438Z" fill="white"/>
<path d="M85.9907 82.9453C89.3127 82.9453 91.1062 83.6294 91.6917 84.7696V81.8051C91.6917 80.3382 91.2048 80.178 88.4375 80.178C85.8305 80.178 85.1833 80.5046 85.1833 81.3182V81.6449H80.2959V80.9915C80.2959 77.4107 82.2496 75.6172 88.4375 75.6172C94.2988 75.6172 96.5792 77.8976 96.5792 81.4784V92.2271H92.345L91.8581 89.6201C91.5315 91.4136 89.7442 92.5538 85.9969 92.5538C82.0894 92.5538 79.9692 91.315 79.9692 87.8327C79.9692 84.3752 82.0832 82.9453 85.9907 82.9453ZM91.6917 87.3397C91.6917 86.8528 90.8782 86.3659 87.1309 86.3659C85.5038 86.3659 84.8505 86.5261 84.8505 87.3397C84.8505 88.1532 85.5038 88.3135 87.1309 88.3135C90.8782 88.3196 91.6917 87.8328 91.6917 87.3397Z" fill="white"/>
<path d="M5.22722 105.145L5.38747 107.912V117.681H0.5V94.8833H5.06081L12.0623 107.419L11.902 104.652V94.8833H16.7895V117.681H12.2287L5.22722 105.145Z" fill="white"/>
<path d="M20.0435 94.8894H36.3268V99.7769H24.9309V106.291H34.6997V111.179H24.9309V117.693H20.0435V94.8894Z" fill="white"/>
<path d="M45.2821 99.7708H38.7676V94.8833H56.678V99.7708H50.1634V117.681H45.276V99.7708H45.2821Z" fill="white"/>
</svg>
