<svg width="97" height="49" viewBox="0 0 97 49" fill="none" xmlns="http://www.w3.org/2000/svg">
<path d="M5.22722 10.691L5.38747 13.4583V23.2271H0.5V0.429199H5.06081L12.0623 12.9653L11.902 10.198V0.429199H16.7895V23.2271H12.2287L5.22722 10.691Z" fill="white"/>
<path d="M28.1851 23.5538C22.3239 23.5538 20.0435 21.2734 20.0435 17.6926V13.1317C20.0435 8.89758 22.3239 6.61719 28.1851 6.61719C34.373 6.61719 36.3268 8.24427 36.3268 12.8051V16.5524H24.9309V17.3659C24.9309 18.5061 25.4178 18.6663 28.1851 18.6663C31.0818 18.6663 31.4393 18.6663 31.4393 18.013H36.3268V18.1733C36.3268 21.7603 34.373 23.5538 28.1851 23.5538ZM24.9309 13.6186H31.4455V12.8051C31.4455 11.8313 30.7922 11.5046 28.1913 11.5046C25.5842 11.5046 24.9371 11.8313 24.9371 13.1317V13.6186H24.9309Z" fill="white"/>
<path d="M44.4685 23.2269H39.5811V21.5998C39.5811 19.2208 40.6226 16.7493 43.3591 14.9558C40.6226 13.2609 39.5811 10.9497 39.5811 8.57069V6.9436H44.4685V8.57069C44.4685 10.4628 44.6966 11.566 47.7227 13.0021C50.7489 11.566 50.9769 10.4628 50.9769 8.57069V6.9436H55.8644V8.57069C55.8644 10.9497 54.8228 13.2609 52.0863 14.9558C54.8228 16.7493 55.8644 19.2208 55.8644 21.5998V23.2269H50.9769V21.5998C50.9769 19.7139 50.7489 18.3764 47.7227 16.8788C44.6966 18.3764 44.4685 19.7139 44.4685 21.5998V23.2269Z" fill="white"/>
<path d="M69.2204 23.227H64.0125C60.7583 23.227 59.125 21.5999 59.125 18.3396V7.23339L60.0988 3.68335H64.0063V6.93755H69.2142V11.825H64.0063V16.7125C64.0063 18.0129 64.6596 18.3396 65.6334 18.3396H69.2142V23.227H69.2204Z" fill="white"/>
<path d="M72.1479 0.429199H77.0354V5.31666H72.1479V0.429199ZM72.1479 6.94376H77.0354V23.2271H72.1479V6.94376Z" fill="white"/>
<path d="M85.9907 13.9453C89.3127 13.9453 91.1062 14.6294 91.6917 15.7696V12.8051C91.6917 11.3382 91.2048 11.178 88.4375 11.178C85.8305 11.178 85.1833 11.5046 85.1833 12.3182V12.6449H80.2959V11.9915C80.2959 8.4107 82.2496 6.61719 88.4375 6.61719C94.2988 6.61719 96.5792 8.89758 96.5792 12.4784V23.2271H92.345L91.8581 20.6201C91.5315 22.4136 89.7442 23.5538 85.9969 23.5538C82.0894 23.5538 79.9692 22.315 79.9692 18.8327C79.9692 15.3752 82.0832 13.9453 85.9907 13.9453ZM91.6917 18.3397C91.6917 17.8528 90.8782 17.3659 87.1309 17.3659C85.5038 17.3659 84.8505 17.5261 84.8505 18.3397C84.8505 19.1532 85.5038 19.3135 87.1309 19.3135C90.8782 19.3196 91.6917 18.8328 91.6917 18.3397Z" fill="white"/>
<path d="M5.22722 36.1451L5.38747 38.9124V48.6812H0.5V25.8833H5.06081L12.0623 38.4194L11.902 35.6521V25.8833H16.7895V48.6812H12.2287L5.22722 36.1451Z" fill="white"/>
<path d="M20.0435 25.8894H36.3268V30.7769H24.9309V37.2914H34.6997V42.1789H24.9309V48.6934H20.0435V25.8894Z" fill="white"/>
<path d="M45.2821 30.7708H38.7676V25.8833H56.678V30.7708H50.1634V48.6812H45.276V30.7708H45.2821Z" fill="white"/>
</svg>
