<svg width="161" height="35" viewBox="0 0 161 35" fill="none" xmlns="http://www.w3.org/2000/svg">
<path d="M0 9.11917V27.997H7.00049V13.9961H14.001V34.9951H21.0015V7.00049H2.12113C0.950676 7.00049 0 7.94871 0 9.11917ZM70 24.5005V27.9995H62.9995V20.999H66.7035V13.9985H49.001V6.99803H56.0015V10.1662H63.002V2.12114C63.002 0.950691 62.0538 0 60.8808 0H44.1216C42.9512 0 42.0005 0.948222 42.0005 2.12114V27.997H35V2.12114C35 0.950691 34.0493 0 32.8788 0H20.999V6.99803H27.9995V34.9975H48.9985V20.9965H55.999V32.8764C55.999 34.0468 56.9472 34.9975 58.1201 34.9975H74.8793C76.0498 34.9975 77.0005 34.0493 77.0005 32.8764V24.498H70V24.5005Z" fill="#F27067"/>
<path d="M94.132 7.44003L94.2505 9.44758V16.5345H90.707V0H94.0134L99.0928 9.09447L98.9743 7.08692V0H102.518V16.5345H99.2113L94.132 7.44003Z" fill="white"/>
<path d="M110.785 16.7716C106.533 16.7716 104.881 15.1172 104.881 12.5195V9.21305C104.881 6.14123 106.533 4.48926 110.785 4.48926C115.272 4.48926 116.689 5.66958 116.689 8.97599V11.6922H108.422V12.2824C108.422 13.1096 108.775 13.2281 110.785 13.2281C112.886 13.2281 113.148 13.2281 113.148 12.7565H116.692V12.875C116.689 15.4727 115.272 16.7716 110.785 16.7716ZM108.422 9.56616H113.146V8.97599C113.146 8.2673 112.674 8.03025 110.783 8.03025C108.891 8.03025 108.419 8.2673 108.419 9.21058V9.56616H108.422Z" fill="white"/>
<path d="M122.593 16.5346H119.05V15.3542C119.05 13.6307 119.805 11.8355 121.791 10.5366C119.808 9.30689 119.05 7.63023 119.05 5.90665V4.72632H122.593V5.90665C122.593 7.27712 122.759 8.07964 124.956 9.11922C127.154 8.07964 127.317 7.27712 127.317 5.90665V4.72632H130.861V5.90665C130.861 7.63023 130.105 9.30689 128.12 10.5366C130.102 11.8355 130.861 13.6307 130.861 15.3542V16.5346H127.317V15.3542C127.317 13.9838 127.152 13.0158 124.956 11.9293C122.759 13.0158 122.593 13.9838 122.593 15.3542V16.5346Z" fill="white"/>
<path d="M140.545 16.5344H136.767C134.404 16.5344 133.224 15.3541 133.224 12.991V4.93608L133.932 2.3606H136.767V4.72372H140.545V8.26718H136.767V11.8106C136.767 12.7564 137.239 12.991 137.947 12.991H140.545V16.5344Z" fill="white"/>
<path d="M142.671 0H146.215V3.54346H142.671V0ZM142.671 4.72626H146.215V16.537H142.671V4.72626Z" fill="white"/>
<path d="M152.709 9.80316C155.119 9.80316 156.418 10.2995 156.843 11.1267V8.97841C156.843 7.91414 156.49 7.79808 154.48 7.79808C152.591 7.79808 152.116 8.03513 152.116 8.6253V8.86235H148.573V8.39071C148.573 5.793 149.99 4.49414 154.477 4.49414C158.729 4.49414 160.381 6.14611 160.381 8.74629V16.5419H157.309L156.956 14.6529C156.719 15.9517 155.42 16.779 152.704 16.779C149.869 16.779 148.333 15.8801 148.333 13.354C148.338 10.8427 149.874 9.80316 152.709 9.80316ZM156.843 12.991C156.843 12.6379 156.253 12.2823 153.536 12.2823C152.356 12.2823 151.882 12.4009 151.882 12.991C151.882 13.5812 152.354 13.6997 153.536 13.6997C156.253 13.6997 156.843 13.3466 156.843 12.991Z" fill="white"/>
<path d="M94.132 25.9056L94.2505 27.9131V35.0001H90.707V18.4656H94.0134L99.0928 27.56L98.9743 25.5525V18.4656H102.518V35.0001H99.2113L94.132 25.9056Z" fill="white"/>
<path d="M104.878 18.4656H116.689V22.009H108.422V26.7328H115.509V30.2763H108.422V35.0001H104.878V18.4656Z" fill="white"/>
<path d="M123.183 22.009H118.459V18.4656H131.451V22.009H126.727V35.0001H123.183V22.009Z" fill="white"/>
</svg>
