<svg width="49" height="49" viewBox="0 0 49 49" fill="none" xmlns="http://www.w3.org/2000/svg">
<rect x="0.748047" width="48.0044" height="48.0044" rx="16" fill="#F27067"/>
<circle cx="20.5625" cy="19.5701" r="2" fill="#FAB8B4"/>
<path d="M24.002 24.5884L25.8296 22.7052C27.0714 21.4256 27.6923 20.7857 28.4845 20.7497C29.2767 20.7137 29.9531 21.2945 31.3059 22.4562L31.3059 22.4562L33.6301 24.452C33.9198 24.7007 34.0646 24.8251 34.1525 24.987C34.1736 25.0259 34.1921 25.0662 34.2078 25.1075C34.2734 25.2796 34.2734 25.4705 34.2734 25.8524C34.2734 29.0861 34.2734 30.703 33.4017 31.797C33.1978 32.0529 32.9632 32.2828 32.7032 32.4816C31.5921 33.3313 29.9756 33.2991 26.7425 33.2345L21.7738 33.1353C19.3045 33.086 18.0699 33.0614 17.1552 32.5112C16.5719 32.1604 16.0879 31.6665 15.7487 31.0764C15.2169 30.1509 15.2169 28.8959 15.2169 26.3859C15.2169 25.8793 15.2169 25.626 15.2739 25.3924C15.327 25.1747 15.4163 24.9675 15.5381 24.7794C15.6688 24.5776 15.8499 24.4065 16.2121 24.0644C16.9698 23.3487 17.3487 22.9908 17.7795 22.852C18.1784 22.7234 18.6076 22.7234 19.0066 22.852C19.4373 22.9908 19.8162 23.3487 20.5739 24.0644L21.1934 24.6495C21.8704 25.2889 22.2088 25.6087 22.619 25.5997C23.0292 25.5908 23.3534 25.2567 24.002 24.5884Z" fill="white"/>
<rect x="15.248" y="14.5" width="19.0044" height="19.0044" rx="5.5" stroke="white"/>
</svg>
