<svg width="25" height="27" viewBox="0 0 25 27" fill="none" xmlns="http://www.w3.org/2000/svg">
<path d="M21.9509 20.956C23.0504 20.3284 23.75 19.1997 23.75 17.9526V9.04739C23.75 7.80031 23.0504 6.6716 21.9509 6.04398L14.4509 1.76285C13.2529 1.07905 11.7471 1.07905 10.5491 1.76285L3.04913 6.04398C1.94962 6.6716 1.25 7.80031 1.25 9.04739V17.9526C1.25 19.1997 1.94962 20.3284 3.04913 20.956L10.5491 25.2371C11.7471 25.9209 13.2529 25.9209 14.4509 25.2371L21.9509 20.956Z" fill="#A92E71" stroke="white" stroke-width="1.5"/>
<path d="M5 11.5536C5.04337 11.5199 5.09104 11.4898 5.12972 11.4517C6.27374 10.3346 7.41736 9.21719 8.55826 8.09793C8.6278 8.02974 8.69657 8 8.79855 8C11.2694 8.00254 13.7407 8.00109 16.2116 8.00544C16.2839 8.00544 16.3765 8.03845 16.4257 8.08596C17.5963 9.22336 18.7622 10.3647 19.9285 11.5058C19.9516 11.5283 19.9715 11.5529 20 11.5841C17.5025 14.3877 15.0086 17.1873 12.5029 20C12.2927 19.765 12.0907 19.5397 11.8895 19.3142C9.62765 16.7746 7.36579 14.235 5.10354 11.6962C5.07385 11.6632 5.03477 11.6371 5 11.6081C5 11.5899 5 11.5718 5 11.5536ZM12.5018 18.3421C13.5036 16.2142 14.4889 14.1215 15.4782 12.0204C13.4817 12.0204 11.5136 12.0204 9.52489 12.0204C10.5169 14.1273 11.5011 16.2175 12.5018 18.3421ZM12.5021 8.96984C11.6566 9.70755 10.8217 10.4362 9.96952 11.1797C11.6719 11.1797 13.3391 11.1797 15.0352 11.1797C14.1814 10.4347 13.3496 9.70936 12.5021 8.96984ZM14.1998 16.7735C14.2084 16.7779 14.2166 16.7822 14.2252 16.7866C15.6365 15.2023 17.0474 13.6181 18.4805 12.0092C17.8163 12.0092 17.1966 12.0117 16.5773 12.0066C16.4718 12.0059 16.4261 12.0404 16.3859 12.1271C15.8252 13.3258 15.2602 14.523 14.696 15.7206C14.5307 16.0717 14.3651 16.4228 14.1998 16.7735ZM10.7807 16.7884C10.7865 16.7851 10.7924 16.7822 10.7982 16.7789C10.7932 16.763 10.7896 16.7463 10.7826 16.7311C10.0555 15.1853 9.32758 13.6398 8.60241 12.0933C8.56802 12.0204 8.51997 12.0081 8.44495 12.0081C7.8495 12.0099 7.25443 12.0088 6.65898 12.0099C6.62421 12.0099 6.58983 12.0183 6.5363 12.0251C7.96163 13.6239 9.37095 15.2059 10.7807 16.7884ZM9.29085 10.6516C9.99844 10.0347 10.6787 9.44133 11.3796 8.82947C10.6611 8.82947 9.97656 8.82947 9.29085 8.82947C9.29085 9.43227 9.29085 10.0238 9.29085 10.6516ZM15.7142 10.652C15.7142 10.0213 15.7142 9.42973 15.7142 8.82839C15.0242 8.82839 14.3401 8.82839 13.6231 8.82839C14.3264 9.44133 15.007 10.0351 15.7142 10.652ZM8.39572 11.1855C8.39572 10.6085 8.39572 10.042 8.39572 9.44424C7.7948 10.0322 7.21497 10.5994 6.61561 11.1855C7.22513 11.1855 7.80222 11.1855 8.39572 11.1855ZM18.3879 11.1852C17.7878 10.5983 17.2079 10.0311 16.6066 9.44315C16.6066 10.0434 16.6066 10.6103 16.6066 11.1852C17.1935 11.1852 17.7717 11.1852 18.3879 11.1852Z" fill="white"/>
</svg>
