<svg width="135" height="117" viewBox="0 0 135 117" fill="none" xmlns="http://www.w3.org/2000/svg">
<path d="M25.7994 100.189C25.9657 100.097 26.1757 100.053 26.4119 100.053H26.7357V99.334H23.1657V100.053H23.4894C23.6907 100.053 23.8569 100.088 23.9751 100.158C24.0407 100.198 24.0713 100.294 24.0713 100.448C24.0713 100.601 24.0451 100.759 23.9926 100.917C23.9357 101.096 23.8701 101.267 23.8001 101.425L18.06 113.903L14.3982 105.888L16.2138 101.912C16.4063 101.509 16.5857 101.171 16.7432 100.917C16.8875 100.68 17.0319 100.496 17.1719 100.369C17.3032 100.25 17.4344 100.167 17.57 100.119C17.7144 100.071 17.8763 100.044 18.0557 100.044H18.3794V99.3252H14.8094V100.044H15.1332C15.6625 100.044 15.6888 100.22 15.6932 100.277C15.7325 100.557 15.645 100.947 15.4394 101.421L13.8775 104.806L12.2894 101.311C12.2325 101.184 12.18 101.035 12.1275 100.873C12.0838 100.728 12.0619 100.583 12.0619 100.443C12.0619 100.215 12.1363 100.171 12.1625 100.154C12.2894 100.079 12.4513 100.044 12.6438 100.044H12.9675V99.3252H8.35627V100.044H8.68002C8.93377 100.044 9.14815 100.088 9.31002 100.171C9.48065 100.259 9.63815 100.386 9.77377 100.54C9.91815 100.706 10.0406 100.895 10.1456 101.101C10.2594 101.329 10.3688 101.566 10.4781 101.811L12.8757 107.024L9.70377 113.903L3.93751 101.32C3.74938 100.886 3.67938 100.535 3.72751 100.277C3.73626 100.22 3.77126 100.053 4.29188 100.053H4.61563V99.334H0V100.053H0.323751C0.507501 100.053 0.673751 100.075 0.822502 100.119C0.958127 100.158 1.08938 100.237 1.21625 100.347C1.35188 100.465 1.4875 100.636 1.6275 100.86C1.77625 101.105 1.9425 101.43 2.12188 101.815L8.89439 116.586H9.44565L13.37 108.102L17.2507 116.586H17.8282L24.6007 101.877C24.7057 101.636 24.8194 101.395 24.9419 101.162C25.0557 100.943 25.1869 100.746 25.3313 100.57C25.4582 100.417 25.6201 100.285 25.7994 100.189Z" fill="white"/>
<path d="M34.9293 104.815C34.0105 104.175 32.8468 103.85 31.473 103.85C30.0993 103.85 28.9268 104.175 27.9949 104.815C27.0718 105.45 26.3674 106.253 25.9036 107.208C25.4443 108.155 25.208 109.195 25.208 110.291C25.208 111.391 25.4355 112.426 25.8905 113.373C26.3455 114.328 27.0411 115.131 27.9599 115.766C28.883 116.407 30.0511 116.731 31.4293 116.731C32.803 116.731 33.9712 116.407 34.8987 115.766C35.8174 115.131 36.513 114.328 36.9768 113.373C37.4362 112.426 37.6724 111.387 37.6724 110.286C37.6724 109.19 37.4449 108.151 36.9899 107.204C36.5305 106.253 35.8349 105.45 34.9293 104.815ZM32.8468 115.701C32.6937 115.745 32.5449 115.771 32.4005 115.784C32.2518 115.797 32.0943 115.806 31.9324 115.806C31.1405 115.806 30.4186 115.569 29.793 115.1C29.1455 114.618 28.5986 113.995 28.1743 113.259C27.7455 112.509 27.4393 111.676 27.2599 110.777C27.0805 109.883 27.0586 109.019 27.1943 108.208C27.3255 107.41 27.6274 106.691 28.0955 106.073C28.5549 105.464 29.1893 105.069 30.038 104.867L30.0468 104.863C30.1999 104.823 30.3486 104.793 30.493 104.78C30.6461 104.766 30.7993 104.758 30.9393 104.758C31.7399 104.758 32.4443 104.99 33.0787 105.464C33.7262 105.946 34.273 106.568 34.6974 107.305C35.1262 108.055 35.4324 108.892 35.6118 109.791C35.7912 110.685 35.813 111.558 35.6774 112.373C35.5462 113.175 35.2487 113.894 34.7849 114.508C34.3343 115.104 33.7043 115.495 32.8468 115.701Z" fill="white"/>
<path d="M61.0349 115.604C60.9255 115.657 60.8293 115.688 60.7374 115.688C60.6499 115.688 60.5318 115.666 60.4005 115.499C60.2868 115.35 60.2255 115.087 60.2255 114.732V108.195C60.2255 107.445 60.1118 106.783 59.8887 106.235C59.6612 105.683 59.3462 105.218 58.948 104.85C58.5543 104.486 58.0949 104.218 57.5918 104.047C56.5724 103.71 55.4262 103.723 54.2886 104.056C53.7068 104.227 53.1511 104.481 52.6349 104.815C52.123 105.148 51.6636 105.551 51.2655 106.016C51.0949 106.213 50.9418 106.424 50.8105 106.647C50.7405 106.397 50.653 106.169 50.548 105.955C50.303 105.468 49.988 105.056 49.6074 104.736C49.2268 104.416 48.7893 104.175 48.2993 104.021C47.2843 103.705 46.173 103.732 45.0836 104.056C44.5105 104.227 43.9593 104.473 43.4517 104.788C42.9355 105.108 42.4761 105.503 42.078 105.968C41.9774 106.082 41.8855 106.2 41.798 106.323V104.14L41.4261 104.017L38.7136 104.525V105.187H39.0374C39.3699 105.187 39.5449 105.214 39.6324 105.236C39.7505 105.266 39.7899 105.301 39.7986 105.315C39.8117 105.332 39.8424 105.38 39.8555 105.503C39.8686 105.652 39.8774 105.836 39.8774 106.051V114.784C39.8642 115.162 39.7811 115.442 39.6367 115.626C39.5099 115.784 39.208 115.867 38.7617 115.867H38.438V116.586H43.2374V115.867H42.9136C42.4499 115.867 42.1305 115.78 42.0124 115.618C41.868 115.42 41.7936 115.118 41.7936 114.727V108.379C41.9511 107.849 42.1874 107.371 42.4936 106.954C42.813 106.525 43.1849 106.152 43.6005 105.845C44.0118 105.542 44.4536 105.306 44.9174 105.148C45.7705 104.854 46.6149 104.828 47.3586 105.1C47.6911 105.222 47.9843 105.415 48.238 105.674C48.4918 105.937 48.6974 106.275 48.8505 106.678C49.008 107.09 49.0868 107.599 49.0868 108.191V114.701C49.0868 115.109 49.0124 115.411 48.8636 115.609C48.7368 115.775 48.4305 115.863 47.9711 115.863H47.6474V116.582H52.4468V115.863H52.123C51.668 115.863 51.3574 115.775 51.2305 115.609C51.0818 115.411 51.0074 115.122 51.0074 114.745V108.37C51.1649 107.84 51.4011 107.362 51.7074 106.945C52.0268 106.516 52.3986 106.143 52.8099 105.836C53.2211 105.534 53.663 105.297 54.1268 105.139C54.9799 104.845 55.8243 104.819 56.568 105.091C56.9005 105.214 57.1937 105.407 57.4474 105.665C57.7012 105.928 57.9068 106.266 58.0599 106.669C58.2174 107.081 58.2962 107.59 58.2962 108.182V114.719C58.2962 115.398 58.4712 115.907 58.8124 116.24C59.1537 116.569 59.5649 116.74 60.0374 116.74C60.523 116.74 60.9955 116.569 61.4418 116.231L61.6999 116.038L61.2755 115.473L61.0349 115.604Z" fill="white"/>
<path d="M74.2315 112.412L74.0871 112.662C73.514 113.631 72.8228 114.346 72.0265 114.788C70.5915 115.586 69.034 115.661 67.5946 115.051C66.9559 114.784 66.3827 114.394 65.8884 113.898C65.394 113.403 64.9915 112.794 64.694 112.083C64.3965 111.377 64.2434 110.562 64.2434 109.663V109.177C64.2434 109.128 64.2434 109.084 64.2477 109.036H73.0634C73.6628 109.036 73.8421 108.786 73.8903 108.572C73.934 108.383 73.9165 108.137 73.8421 107.8C73.6934 107.138 73.4353 106.555 73.0809 106.064C72.7265 105.577 72.3065 105.165 71.8296 104.836C71.3528 104.507 70.8234 104.257 70.2503 104.095C68.9728 103.731 67.5859 103.775 66.269 104.24C65.5384 104.503 64.869 104.902 64.2784 105.432C63.6921 105.963 63.2109 106.629 62.8565 107.41C62.4977 108.194 62.3184 109.124 62.3184 110.172C62.3184 111.25 62.4977 112.21 62.8565 113.022C63.2109 113.833 63.6921 114.521 64.2784 115.069C64.8646 115.617 65.5471 116.034 66.304 116.31C67.0565 116.586 67.8396 116.726 68.6315 116.726C69.8259 116.726 70.9984 116.424 72.1228 115.827C73.2559 115.227 74.1746 114.297 74.8528 113.07L75.0234 112.758L74.2315 112.412ZM72.4771 108.067C72.4728 108.094 72.4684 108.098 72.4509 108.107C72.4203 108.124 72.3196 108.159 72.0746 108.177C71.8603 108.19 71.5453 108.199 71.134 108.199H64.3746C64.484 107.703 64.6546 107.269 64.8865 106.901C65.1752 106.441 65.5209 106.055 65.919 105.757C66.3171 105.459 66.7634 105.235 67.2402 105.099C68.2159 104.823 69.2309 104.827 70.1628 105.086C70.6178 105.213 71.0246 105.406 71.3746 105.656C71.7159 105.902 71.9959 106.195 72.2059 106.537C72.4071 106.87 72.5078 107.23 72.5078 107.638C72.5078 107.817 72.499 107.962 72.4771 108.067Z" fill="white"/>
<path d="M88.3309 115.604C88.2215 115.657 88.1253 115.687 88.0334 115.687C87.9634 115.687 87.8497 115.67 87.7184 115.499C87.6047 115.35 87.5434 115.087 87.5434 114.732L87.5215 108.199C87.5215 107.445 87.4078 106.787 87.1847 106.239C86.9572 105.687 86.6465 105.222 86.2572 104.858C85.8678 104.494 85.4128 104.223 84.9097 104.056C83.8903 103.718 82.7396 103.732 81.6196 104.065C81.0465 104.236 80.4953 104.481 79.9878 104.797C79.4715 105.117 79.0121 105.512 78.614 105.976C78.5134 106.09 78.4215 106.209 78.334 106.331V104.131L77.9271 104.03L75.2496 104.534V105.196H75.5734C75.884 105.196 76.0546 105.222 76.1421 105.244C76.2603 105.275 76.2996 105.31 76.3084 105.323C76.3215 105.341 76.3521 105.389 76.3653 105.512C76.3784 105.656 76.3871 105.84 76.3871 106.06V114.714C76.3871 115.122 76.3128 115.429 76.1728 115.63C76.0546 115.793 75.7353 115.88 75.2715 115.88H74.9478V116.599H79.7471V115.88H79.4234C78.9684 115.88 78.6578 115.793 78.5309 115.626C78.3821 115.429 78.3078 115.131 78.3078 114.74L78.3296 108.392C78.4871 107.862 78.7234 107.384 79.0296 106.967C79.349 106.538 79.7209 106.165 80.1234 105.858C80.5259 105.555 80.9634 105.319 81.4271 105.161C81.8865 105.003 82.3415 104.924 82.7834 104.924C83.5578 104.924 84.2053 105.178 84.7696 105.7C85.3165 106.209 85.5965 107.051 85.5965 108.208V114.745C85.5965 115.424 85.7715 115.933 86.1128 116.266C86.454 116.595 86.8653 116.766 87.3378 116.766C87.8234 116.766 88.2959 116.595 88.7422 116.257L88.9959 116.065L88.5715 115.499L88.3309 115.604Z" fill="white"/>
<path d="M94.9503 115.639C94.6178 115.766 94.3115 115.828 94.0446 115.828C93.6378 115.828 93.3359 115.652 93.0821 115.275C92.8109 114.868 92.6709 114.092 92.6709 112.965V104.845H94.7578V104.012H92.6709L92.6928 101.618H91.984L91.9315 101.877C91.8178 102.438 91.5815 102.89 91.2096 103.258C90.8334 103.626 90.374 103.885 89.8446 104.025L89.604 104.087V104.845H90.7415V113.548C90.7415 114.662 91.0128 115.481 91.5509 115.981C92.0803 116.481 92.7365 116.731 93.5021 116.731C94.0884 116.731 94.6703 116.604 95.2346 116.354L95.519 116.227L95.239 115.525L94.9503 115.639Z" fill="white"/>
<path d="M107.485 112.658C106.911 113.627 106.22 114.341 105.424 114.784C103.989 115.582 102.431 115.656 100.992 115.047C100.353 114.78 99.7802 114.389 99.2858 113.894C98.7915 113.399 98.389 112.789 98.0915 112.079C97.794 111.373 97.6408 110.558 97.6408 109.659V109.172C97.6408 109.124 97.6408 109.08 97.6452 109.032H106.461C107.06 109.032 107.24 108.782 107.288 108.567C107.331 108.379 107.314 108.133 107.24 107.8C107.091 107.138 106.833 106.555 106.478 106.064C106.124 105.577 105.704 105.165 105.227 104.836C104.75 104.507 104.221 104.257 103.648 104.095C102.37 103.731 100.983 103.771 99.6665 104.24C98.9358 104.503 98.2664 104.902 97.6758 105.432C97.0896 105.963 96.6083 106.629 96.2539 107.41C95.8952 108.194 95.7158 109.124 95.7158 110.172C95.7158 111.25 95.8952 112.21 96.2539 113.022C96.6083 113.833 97.0896 114.521 97.6758 115.069C98.2621 115.617 98.9446 116.034 99.7015 116.31C100.454 116.586 101.237 116.726 102.029 116.726C103.223 116.726 104.396 116.424 105.52 115.827C106.653 115.227 107.572 114.297 108.25 113.07L108.421 112.758L107.629 112.403L107.485 112.658ZM105.875 108.067C105.87 108.094 105.866 108.098 105.848 108.107C105.818 108.124 105.717 108.159 105.472 108.177C105.258 108.19 104.943 108.199 104.531 108.199H97.7721C97.8814 107.703 98.0521 107.269 98.2839 106.901C98.5727 106.441 98.9183 106.055 99.3165 105.757C99.7146 105.459 100.161 105.235 100.638 105.099C101.613 104.823 102.628 104.827 103.56 105.086C104.015 105.213 104.422 105.406 104.772 105.656C105.113 105.901 105.393 106.195 105.603 106.537C105.805 106.87 105.905 107.23 105.905 107.638C105.905 107.817 105.896 107.962 105.875 108.067Z" fill="white"/>
<path d="M121.532 112.829L120.77 112.448L120.617 112.711C120.062 113.662 119.375 114.363 118.574 114.797C117.135 115.578 115.564 115.661 114.09 115.061C113.442 114.797 112.865 114.42 112.375 113.934C111.88 113.447 111.473 112.842 111.167 112.141C110.861 111.439 110.708 110.641 110.708 109.76C110.708 108.94 110.843 108.217 111.11 107.612C111.377 107.002 111.736 106.481 112.173 106.064C112.611 105.648 113.118 105.327 113.674 105.121C114.672 104.749 115.77 104.701 116.828 105.003C117.231 105.117 117.62 105.288 117.997 105.503C118.005 106.025 118.123 106.476 118.347 106.844C118.618 107.3 118.946 107.55 119.348 107.594C119.751 107.62 120.062 107.414 120.206 107.037C120.346 106.665 120.215 106.261 119.817 105.845C119.2 105.161 118.473 104.648 117.664 104.332C116.111 103.718 114.422 103.701 112.852 104.271C112.086 104.547 111.399 104.959 110.808 105.498C110.213 106.038 109.728 106.713 109.36 107.511C108.993 108.309 108.809 109.238 108.809 110.273C108.809 111.338 108.988 112.281 109.347 113.079C109.702 113.877 110.183 114.552 110.769 115.091C111.355 115.63 112.042 116.038 112.808 116.31C113.565 116.577 114.361 116.713 115.166 116.713C116.373 116.713 117.55 116.415 118.657 115.828C119.777 115.236 120.687 114.328 121.365 113.131L121.532 112.829Z" fill="white"/>
<path d="M134.571 115.486L134.33 115.609C134.221 115.661 134.125 115.692 134.033 115.692C133.945 115.692 133.827 115.67 133.696 115.504C133.582 115.355 133.521 115.091 133.521 114.736V108.199C133.521 107.445 133.407 106.788 133.184 106.24C132.957 105.687 132.642 105.222 132.244 104.854C131.85 104.49 131.39 104.223 130.887 104.052C129.868 103.714 128.717 103.727 127.597 104.061C127.024 104.232 126.473 104.482 125.961 104.806C125.449 105.13 124.99 105.529 124.592 105.981C124.495 106.095 124.399 106.209 124.316 106.332L124.338 99.4177L123.931 99.3169L121.254 99.8211V100.505H121.577C121.831 100.505 122.028 100.518 122.164 100.544C122.234 100.558 122.286 100.58 122.304 100.606C122.334 100.65 122.36 100.724 122.369 100.816C122.382 100.965 122.391 101.15 122.391 101.364V114.706C122.391 115.113 122.317 115.42 122.172 115.622C122.054 115.784 121.735 115.872 121.275 115.872H120.952V116.591H125.751V115.872H125.427C124.972 115.872 124.662 115.784 124.535 115.618C124.386 115.42 124.312 115.122 124.312 114.732V108.384C124.469 107.853 124.705 107.375 125.012 106.959C125.331 106.529 125.703 106.156 126.114 105.849C126.525 105.547 126.967 105.31 127.431 105.152C128.284 104.859 129.129 104.832 129.872 105.104C130.205 105.227 130.498 105.42 130.752 105.678C131.005 105.942 131.211 106.279 131.364 106.682C131.522 107.095 131.6 107.603 131.6 108.195V114.732C131.6 115.411 131.775 115.92 132.117 116.253C132.458 116.582 132.869 116.753 133.342 116.753C133.827 116.753 134.3 116.582 134.746 116.245L135 116.052L134.571 115.486Z" fill="white"/>
<path d="M101.978 0C97.2176 0 93.3544 3.86691 93.3544 8.64136V24.2537V55.9343V56.3771C93.2363 61.1384 89.2463 64.9571 84.4163 64.7817C79.8488 64.6151 76.1169 60.5422 76.1169 55.9606V24.2537V8.64136C76.1213 3.86691 72.2581 0 67.4981 0C62.7381 0 58.875 3.86691 58.875 8.64136V24.2537V55.9606C58.875 60.5422 55.1475 64.6151 50.5756 64.7817C45.75 64.9571 41.7556 61.1384 41.6374 56.3771V55.9343V24.2493V8.64136C41.6418 3.86691 37.7831 0 33.0187 0C28.2587 0 24.3999 3.86691 24.3999 8.64136V56.1535C24.3999 59.183 24.9162 62.0898 25.8699 64.7905C29.4137 74.8524 38.9949 82.0645 50.2606 82.0645C56.8843 82.0645 62.9306 79.5654 67.4981 75.4618C72.07 79.5654 78.1163 82.0645 84.74 82.0645C96.0057 82.0645 105.583 74.8524 109.131 64.7905C110.084 62.0898 110.601 59.183 110.601 56.1535V8.64136C110.601 3.86691 106.738 0 101.978 0Z" fill="white"/>
</svg>
